<svg width="42" height="36" viewBox="0 0 42 36" fill="none" xmlns="http://www.w3.org/2000/svg">
<path d="M40.932 33.4531L22.2445 1.10938C21.966 0.628711 21.4853 0.390625 21.0002 0.390625C20.515 0.390625 20.0298 0.628711 19.7558 1.10938L1.06833 33.4531C0.515787 34.4145 1.20758 35.6094 2.31266 35.6094H39.6877C40.7927 35.6094 41.4845 34.4145 40.932 33.4531ZM19.5627 13.6875C19.5627 13.4898 19.7244 13.3281 19.922 13.3281H22.0783C22.2759 13.3281 22.4377 13.4898 22.4377 13.6875V21.9531C22.4377 22.1508 22.2759 22.3125 22.0783 22.3125H19.922C19.7244 22.3125 19.5627 22.1508 19.5627 21.9531V13.6875ZM21.0002 29.5C20.4359 29.4885 19.8987 29.2562 19.5037 28.8531C19.1087 28.45 18.8875 27.9081 18.8875 27.3438C18.8875 26.7794 19.1087 26.2375 19.5037 25.8344C19.8987 25.4313 20.4359 25.199 21.0002 25.1875C21.5644 25.199 22.1017 25.4313 22.4966 25.8344C22.8916 26.2375 23.1128 26.7794 23.1128 27.3438C23.1128 27.9081 22.8916 28.45 22.4966 28.8531C22.1017 29.2562 21.5644 29.4885 21.0002 29.5Z" fill="#C4A270"/>
</svg>
